<?xml version="1.0" encoding="UTF-8" standalone="no"?>
<svg xmlns:dc="http://purl.org/dc/elements/1.1/" xmlns:cc="http://creativecommons.org/ns#" xmlns:rdf="http://www.w3.org/1999/02/22-rdf-syntax-ns#" xmlns:svg="http://www.w3.org/2000/svg" xmlns="http://www.w3.org/2000/svg" xmlns:xlink="http://www.w3.org/1999/xlink" version="1.2" viewBox="0 0 260.2 160.5" height="160.5pt" width="260.2pt">
<defs >
<g >
<symbol overflow="visible">
<path d="" style="stroke:none;" />
</symbol>
<symbol id="l" overflow="visible">
<path d="M 3.3 -3.0 C 3.4 -3.3 3.6 -4.2 4.3 -4.2 C 4.4 -4.2 4.6 -4.2 4.8 -4.1 C 4.5 -4 4.3 -3.8 4.3 -3.5 C 4.3 -3.4 4.5 -3.2 4.7 -3.2 C 4.9 -3.2 5.2 -3.3 5.2 -3.8 C 5.2 -4.3 4.7 -4.4 4.3 -4.4 C 3.8 -4.4 3.4 -3.9 3.3 -3.7 C 3.0 -4.3 2.5 -4.4 2.2 -4.4 C 1.2 -4.4 0.6 -3.1 0.6 -2.9 C 0.6 -2.8 0.7 -2.8 0.7 -2.8 C 0.8 -2.8 0.8 -2.8 0.8 -2.9 C 1.2 -3.9 1.8 -4.2 2.2 -4.2 C 2.4 -4.2 2.7 -4.1 2.7 -3.5 C 2.7 -3.2 2.5 -2.5 2.2 -1.1 C 2.0 -0.5 1.7 -0.1 1.2 -0.1 C 1.2 -0.1 1.0 -0.1 0.7 -0.2 C 1.0 -0.3 1.2 -0.5 1.2 -0.8 C 1.2 -1.0 1.0 -1.1 0.8 -1.1 C 0.5 -1.1 0.3 -0.9 0.3 -0.5 C 0.3 -0.1 0.8 0.1 1.2 0.1 C 1.9 0.1 2.2 -0.6 2.3 -0.6 C 2.4 -0.3 2.8 0.1 3.3 0.1 C 4.4 0.1 4.9 -1.2 4.9 -1.4 C 4.9 -1.5 4.9 -1.5 4.8 -1.5 C 4.7 -1.5 4.7 -1.5 4.7 -1.4 C 4.4 -0.3 3.7 -0.1 3.4 -0.1 C 3.0 -0.1 2.8 -0.4 2.8 -0.8 C 2.8 -1.0 2.9 -1.2 3.0 -1.6 Z M 3.3 -3.0 " style="stroke:none;" />
</symbol>
<symbol id="b" overflow="visible">
<path d="M 4.6 -3.4 C 4.7 -3.6 4.8 -4.0 4.8 -4.0 C 4.8 -4.2 4.6 -4.3 4.5 -4.3 C 4.3 -4.3 4.2 -4.2 4.1 -4.0 C 4.1 -4.0 3.6 -2.0 3.5 -1.8 C 3.5 -1.5 3.4 -1.3 3.4 -1.1 C 3.4 -1.0 3.4 -1 3.5 -1.0 C 3.2 -0.4 2.9 -0.1 2.5 -0.1 C 1.7 -0.1 1.7 -0.8 1.7 -1.0 C 1.7 -1.3 1.8 -1.7 2.2 -3.0 C 2.4 -3.2 2.4 -3.4 2.4 -3.6 C 2.4 -4.0 2.1 -4.4 1.6 -4.4 C 0.7 -4.4 0.3 -3.0 0.3 -2.9 C 0.3 -2.8 0.4 -2.8 0.4 -2.8 C 0.5 -2.8 0.5 -2.8 0.6 -3.0 C 0.8 -3.9 1.2 -4.2 1.6 -4.2 C 1.7 -4.2 1.8 -4.2 1.8 -3.9 C 1.8 -3.6 1.7 -3.3 1.6 -3.2 C 1.2 -2.0 1.1 -1.5 1.1 -1.1 C 1.1 -0.2 1.8 0.1 2.5 0.1 C 2.7 0.1 3.1 0.1 3.5 -0.6 C 3.8 0.0 4.5 0.1 4.8 0.1 C 5.5 0.1 6.0 -0.5 6.2 -1.1 C 6.6 -1.9 6.9 -3.2 6.9 -3.7 C 6.9 -4.2 6.6 -4.4 6.5 -4.4 C 6.2 -4.4 6.0 -4.1 6.0 -3.9 C 6.0 -3.8 6.0 -3.7 6.1 -3.7 C 6.2 -3.5 6.5 -3.3 6.5 -2.8 C 6.5 -2.5 6.2 -1.5 5.9 -1.0 C 5.7 -0.5 5.3 -0.1 4.8 -0.1 C 4.3 -0.1 4.1 -0.4 4.1 -1.0 C 4.1 -1.2 4.1 -1.6 4.2 -1.7 Z M 4.6 -3.4 " style="stroke:none;" />
</symbol>
<symbol overflow="visible">
<path d="" style="stroke:none;" />
</symbol>
<symbol id="m" overflow="visible">
<path d="M 2.3 -4.4 C 2.3 -4.6 2.3 -4.6 2.1 -4.6 C 1.7 -4.2 1.0 -4.2 0.8 -4.2 L 0.8 -3.9 C 0.9 -3.9 1.4 -3.9 1.8 -4.1 L 1.8 -0.6 C 1.8 -0.3 1.8 -0.2 1.1 -0.2 L 0.8 -0.2 L 0.8 0 C 0.9 0 1.8 -0.0 2.0 -0.0 C 2.3 -0.0 3.1 0 3.3 0 L 3.3 -0.2 L 3.0 -0.2 C 2.3 -0.2 2.3 -0.3 2.3 -0.6 Z M 2.3 -4.4 " style="stroke:none;" />
</symbol>
<symbol id="n" overflow="visible">
<path d="M 3.5 -1.3 L 3.3 -1.3 C 3.3 -1.1 3.2 -0.7 3.1 -0.6 C 3.0 -0.6 2.5 -0.6 2.4 -0.6 L 1.1 -0.6 C 1.9 -1.2 2.1 -1.4 2.5 -1.8 C 3.0 -2.2 3.5 -2.6 3.5 -3.3 C 3.5 -4.1 2.8 -4.6 1.9 -4.6 C 1.0 -4.6 0.4 -4.0 0.4 -3.4 C 0.4 -3.0 0.7 -3.0 0.8 -3.0 C 1.0 -3.0 1.2 -3.1 1.2 -3.4 C 1.2 -3.5 1.1 -3.7 0.8 -3.7 C 1.0 -4.2 1.5 -4.4 1.8 -4.4 C 2.5 -4.4 2.8 -3.8 2.8 -3.3 C 2.8 -2.7 2.4 -2.2 2.2 -1.9 L 0.5 -0.3 C 0.4 -0.2 0.4 -0.2 0.4 0 L 3.3 0 Z M 3.5 -1.3 " style="stroke:none;" />
</symbol>
<symbol id="s" overflow="visible">
<path d="M 1.9 -2.3 C 2.5 -2.3 2.8 -2.0 2.8 -1.2 C 2.8 -0.3 2.3 -0.1 1.9 -0.1 C 1.7 -0.1 1.0 -0.2 0.8 -0.6 C 1.1 -0.6 1.2 -0.8 1.2 -1.0 C 1.2 -1.2 1.0 -1.3 0.8 -1.3 C 0.6 -1.3 0.4 -1.2 0.4 -0.9 C 0.4 -0.3 1.1 0.1 1.9 0.1 C 2.9 0.1 3.6 -0.5 3.6 -1.2 C 3.6 -1.8 3.1 -2.3 2.4 -2.5 C 3.1 -2.7 3.4 -3.2 3.4 -3.7 C 3.4 -4.2 2.7 -4.6 2.0 -4.6 C 1.2 -4.6 0.6 -4.2 0.6 -3.7 C 0.6 -3.5 0.8 -3.3 1.0 -3.3 C 1.2 -3.3 1.3 -3.5 1.3 -3.7 C 1.3 -3.9 1.2 -4.0 1.0 -4.0 C 1.2 -4.3 1.7 -4.4 1.9 -4.4 C 2.2 -4.4 2.7 -4.3 2.7 -3.7 C 2.7 -3.4 2.6 -3.0 2.4 -2.8 C 2.2 -2.6 2.0 -2.6 1.6 -2.5 C 1.5 -2.5 1.5 -2.5 1.4 -2.5 C 1.4 -2.5 1.3 -2.5 1.3 -2.4 C 1.3 -2.3 1.4 -2.3 1.5 -2.3 Z M 1.9 -2.3 " style="stroke:none;" />
</symbol>
<symbol id="t" overflow="visible">
<path d="M 3.7 -1.1 L 3.7 -1.4 L 2.9 -1.4 L 2.9 -4.5 C 2.9 -4.6 2.9 -4.7 2.8 -4.7 C 2.7 -4.7 2.6 -4.7 2.6 -4.6 L 0.3 -1.4 L 0.3 -1.1 L 2.3 -1.1 L 2.3 -0.6 C 2.3 -0.3 2.3 -0.2 1.8 -0.2 L 1.6 -0.2 L 1.6 0 C 1.9 -0.0 2.4 -0.0 2.6 -0.0 C 2.9 -0.0 3.3 -0.0 3.7 0 L 3.7 -0.2 L 3.5 -0.2 C 2.9 -0.2 2.9 -0.3 2.9 -0.6 L 2.9 -1.1 Z M 2.4 -3.9 L 2.4 -1.4 L 0.5 -1.4 Z M 2.4 -3.9 " style="stroke:none;" />
</symbol>
<symbol id="u" overflow="visible">
<path d="M 1.1 -3.9 C 1.4 -3.8 1.6 -3.8 1.8 -3.8 C 2.7 -3.8 3.2 -4.4 3.2 -4.5 C 3.2 -4.6 3.2 -4.6 3.1 -4.6 C 3.1 -4.6 3.1 -4.6 3.1 -4.6 C 2.9 -4.5 2.5 -4.4 2.0 -4.4 C 1.8 -4.4 1.5 -4.4 1.0 -4.6 C 0.9 -4.6 0.9 -4.6 0.9 -4.6 C 0.8 -4.6 0.8 -4.5 0.8 -4.4 L 0.8 -2.4 C 0.8 -2.3 0.8 -2.2 0.9 -2.2 C 1 -2.2 1.0 -2.2 1.1 -2.3 C 1.4 -2.7 1.8 -2.7 2.0 -2.7 C 2.5 -2.7 2.7 -2.4 2.7 -2.3 C 2.8 -2.1 2.9 -1.8 2.9 -1.4 C 2.9 -1.2 2.9 -0.8 2.6 -0.5 C 2.5 -0.2 2.2 -0.1 1.8 -0.1 C 1.4 -0.1 0.9 -0.3 0.7 -0.8 C 1 -0.8 1.1 -1.0 1.1 -1.1 C 1.1 -1.4 0.9 -1.5 0.8 -1.5 C 0.8 -1.5 0.4 -1.5 0.4 -1.1 C 0.4 -0.5 1.0 0.1 1.8 0.1 C 2.7 0.1 3.5 -0.5 3.5 -1.4 C 3.5 -2.2 2.9 -2.9 2.1 -2.9 C 1.8 -2.9 1.4 -2.8 1.1 -2.6 Z M 1.1 -3.9 " style="stroke:none;" />
</symbol>
<symbol id="v" overflow="visible">
<path d="M 1.0 -2.3 C 1.0 -2.8 1.1 -3.4 1.4 -3.8 C 1.6 -4.2 2.0 -4.4 2.4 -4.4 C 2.6 -4.4 2.9 -4.4 3.0 -4.2 C 2.9 -4.2 2.7 -4.0 2.7 -3.8 C 2.7 -3.7 2.8 -3.5 3.0 -3.5 C 3.3 -3.5 3.4 -3.7 3.4 -3.9 C 3.4 -4.3 3.1 -4.6 2.4 -4.6 C 1.4 -4.6 0.4 -3.7 0.4 -2.2 C 0.4 -0.4 1.2 0.1 2 0.1 C 2.8 0.1 3.6 -0.5 3.6 -1.4 C 3.6 -2.3 2.9 -3.0 2.1 -3.0 C 1.5 -3.0 1.2 -2.6 1.0 -2.3 Z M 2 -0.1 C 1.6 -0.1 1.4 -0.3 1.2 -0.6 C 1.1 -0.8 1.1 -1.2 1.1 -1.6 C 1.1 -2.2 1.5 -2.8 2.0 -2.8 C 2.3 -2.8 2.6 -2.6 2.7 -2.4 C 2.9 -2.1 2.9 -1.8 2.9 -1.4 C 2.9 -1.0 2.9 -0.7 2.7 -0.5 C 2.6 -0.2 2.3 -0.1 2 -0.1 Z M 2 -0.1 " style="stroke:none;" />
</symbol>
<symbol id="w" overflow="visible">
<path d="M 3.7 -4.2 C 3.8 -4.3 3.8 -4.3 3.8 -4.5 L 2.0 -4.5 C 1.7 -4.5 1.6 -4.5 1.4 -4.5 C 1 -4.5 1.0 -4.6 1.0 -4.7 L 0.7 -4.7 L 0.5 -3.2 L 0.7 -3.2 C 0.7 -3.3 0.8 -3.8 0.9 -3.9 C 1.0 -3.9 1.5 -3.9 1.6 -3.9 L 3.2 -3.9 C 2.9 -3.6 2.6 -3.2 2.4 -3.0 C 1.5 -1.8 1.4 -0.7 1.4 -0.3 C 1.4 -0.2 1.4 0.1 1.8 0.1 C 2.1 0.1 2.1 -0.2 2.1 -0.3 L 2.1 -0.5 C 2.1 -1.9 2.4 -2.5 2.7 -2.9 Z M 3.7 -4.2 " style="stroke:none;" />
</symbol>
<symbol id="x" overflow="visible">
<path d="M 2.9 -2.1 C 2.9 -0.3 2.1 -0.1 1.6 -0.1 C 1.5 -0.1 1.1 -0.1 0.9 -0.3 C 1.2 -0.3 1.2 -0.6 1.2 -0.6 C 1.2 -0.8 1.1 -1.0 0.9 -1.0 C 0.7 -1.0 0.6 -0.8 0.6 -0.6 C 0.6 -0.2 1.0 0.1 1.6 0.1 C 2.6 0.1 3.6 -0.8 3.6 -2.3 C 3.6 -4.0 2.8 -4.6 2 -4.6 C 1.8 -4.6 1.3 -4.6 0.9 -4.2 C 0.7 -4.0 0.4 -3.7 0.4 -3.1 C 0.4 -2.2 1.1 -1.5 1.9 -1.5 C 2.5 -1.5 2.8 -1.9 2.9 -2.2 Z M 1.9 -1.7 C 1.7 -1.7 1.4 -1.8 1.2 -2.1 C 1.0 -2.4 1.0 -2.7 1.0 -3.1 C 1.0 -3.5 1.0 -3.8 1.2 -4.0 C 1.4 -4.3 1.6 -4.4 2 -4.4 C 2.4 -4.4 2.6 -4.2 2.7 -4.0 C 2.9 -3.7 2.9 -3.2 2.9 -3 C 2.9 -2.1 2.4 -1.7 1.9 -1.7 Z M 1.9 -1.7 " style="stroke:none;" />
</symbol>
<symbol id="y" overflow="visible">
<path d="M 2.5 -2.5 C 3.0 -2.8 3.4 -3.1 3.4 -3.6 C 3.4 -4.3 2.7 -4.6 2.0 -4.6 C 1.2 -4.6 0.6 -4.1 0.6 -3.5 C 0.6 -3.1 0.8 -2.9 0.9 -2.8 C 1 -2.6 1.0 -2.6 1.5 -2.3 C 1.1 -2.2 0.4 -1.8 0.4 -1.1 C 0.4 -0.3 1.2 0.1 2.0 0.1 C 2.9 0.1 3.6 -0.4 3.6 -1.2 C 3.6 -1.6 3.3 -2.0 2.9 -2.3 C 2.8 -2.3 2.6 -2.5 2.5 -2.5 Z M 1.3 -3.2 C 1.2 -3.3 1.0 -3.5 1.0 -3.7 C 1.0 -4.2 1.5 -4.4 2.0 -4.4 C 2.5 -4.4 3 -4.1 3 -3.6 C 3 -3.0 2.3 -2.7 2.3 -2.7 C 2.2 -2.7 2.2 -2.7 2.2 -2.7 Z M 1.7 -2.2 L 2.6 -1.7 C 2.8 -1.5 3.2 -1.3 3.2 -0.9 C 3.2 -0.4 2.6 -0.1 2.0 -0.1 C 1.3 -0.1 0.8 -0.5 0.8 -1.1 C 0.8 -1.6 1.2 -2.0 1.7 -2.2 Z M 1.7 -2.2 " style="stroke:none;" />
</symbol>
<symbol overflow="visible">
<path d="" style="stroke:none;" />
</symbol>
<symbol id="a" overflow="visible">
<path d="M 6.8 -3.3 C 7 -3.3 7.2 -3.3 7.2 -3.5 C 7.2 -3.7 7 -3.7 6.9 -3.7 L 0.9 -3.7 C 0.8 -3.7 0.6 -3.7 0.6 -3.5 C 0.6 -3.3 0.8 -3.3 0.9 -3.3 Z M 6.9 -1.3 C 7 -1.3 7.2 -1.3 7.2 -1.5 C 7.2 -1.7 7 -1.7 6.8 -1.7 L 0.9 -1.7 C 0.8 -1.7 0.6 -1.7 0.6 -1.5 C 0.6 -1.3 0.8 -1.3 0.9 -1.3 Z M 6.9 -1.3 " style="stroke:none;" />
</symbol>
<symbol id="c" overflow="visible">
<path d="M 2.9 -6.4 C 2.9 -6.6 2.9 -6.6 2.7 -6.6 C 2.1 -6 1.2 -6 0.9 -6 L 0.9 -5.7 C 1.1 -5.7 1.7 -5.7 2.2 -6.0 L 2.2 -0.8 C 2.2 -0.4 2.2 -0.3 1.3 -0.3 L 1.0 -0.3 L 1.0 0 C 1.3 -0.0 2.2 -0.0 2.6 -0.0 C 3.0 -0.0 3.8 -0.0 4.2 0 L 4.2 -0.3 L 3.9 -0.3 C 3.0 -0.3 2.9 -0.4 2.9 -0.8 Z M 2.9 -6.4 " style="stroke:none;" />
</symbol>
<symbol id="d" overflow="visible">
<path d="M 1.3 -0.8 L 2.3 -1.8 C 3.9 -3.2 4.5 -3.7 4.5 -4.7 C 4.5 -5.8 3.6 -6.6 2.4 -6.6 C 1.2 -6.6 0.5 -5.7 0.5 -4.8 C 0.5 -4.3 1 -4.3 1.0 -4.3 C 1.2 -4.3 1.5 -4.4 1.5 -4.8 C 1.5 -5.1 1.4 -5.3 1.0 -5.3 C 0.9 -5.3 0.9 -5.3 0.9 -5.3 C 1.1 -6.0 1.7 -6.3 2.2 -6.3 C 3.1 -6.3 3.6 -5.5 3.6 -4.7 C 3.6 -3.9 3.1 -3.1 2.5 -2.5 L 0.6 -0.4 C 0.5 -0.3 0.5 -0.2 0.5 0 L 4.2 0 L 4.5 -1.7 L 4.2 -1.7 C 4.2 -1.4 4.1 -1 4 -0.8 C 3.9 -0.8 3.3 -0.8 3.1 -0.8 Z M 1.3 -0.8 " style="stroke:none;" />
</symbol>
<symbol id="g" overflow="visible">
<path d="M 1.8 -6.9 L 0.3 -6.8 L 0.3 -6.5 C 1.0 -6.5 1.1 -6.4 1.1 -5.9 L 1.1 -0.8 C 1.1 -0.3 1 -0.3 0.3 -0.3 L 0.3 0 C 0.7 -0.0 1.2 -0.0 1.4 -0.0 C 1.7 -0.0 2.2 -0.0 2.5 0 L 2.5 -0.3 C 1.9 -0.3 1.8 -0.3 1.8 -0.8 Z M 1.8 -6.9 " style="stroke:none;" />
</symbol>
<symbol id="h" overflow="visible">
<path d="M 3.3 -0.8 C 3.4 -0.4 3.6 0.1 4.1 0.1 C 4.3 0.1 4.9 -0.1 4.9 -0.9 L 4.9 -1.5 L 4.7 -1.5 L 4.7 -0.9 C 4.7 -0.3 4.4 -0.2 4.3 -0.2 C 4.0 -0.2 3.9 -0.7 3.9 -0.8 L 3.9 -2.7 C 3.9 -3.2 3.9 -3.5 3.6 -3.9 C 3.2 -4.3 2.7 -4.5 2.2 -4.5 C 1.4 -4.5 0.7 -4 0.7 -3.3 C 0.7 -3.0 0.9 -2.9 1.2 -2.9 C 1.5 -2.9 1.6 -3.1 1.6 -3.3 C 1.6 -3.5 1.6 -3.8 1.1 -3.8 C 1.4 -4.1 1.9 -4.2 2.2 -4.2 C 2.7 -4.2 3.2 -3.9 3.2 -3.0 L 3.2 -2.6 C 2.7 -2.6 2.0 -2.5 1.4 -2.2 C 0.7 -1.9 0.4 -1.4 0.4 -1.0 C 0.4 -0.1 1.4 0.1 2.0 0.1 C 2.7 0.1 3.1 -0.3 3.3 -0.8 Z M 3.2 -2.4 L 3.2 -1.4 C 3.2 -0.5 2.5 -0.1 2.1 -0.1 C 1.6 -0.1 1.2 -0.5 1.2 -1.0 C 1.2 -1.5 1.6 -2.3 3.2 -2.4 Z M 3.2 -2.4 " style="stroke:none;" />
</symbol>
<symbol id="i" overflow="visible">
<path d="M 4.1 -3.3 C 4.4 -4.0 4.9 -4.0 5.1 -4.0 L 5.1 -4.3 C 4.8 -4.3 4.5 -4.3 4.3 -4.3 C 4.1 -4.3 3.7 -4.3 3.5 -4.3 L 3.5 -4.0 C 3.8 -4.0 3.9 -3.8 3.9 -3.6 C 3.9 -3.5 3.9 -3.4 3.9 -3.3 L 2.8 -0.9 L 1.8 -3.5 C 1.7 -3.7 1.7 -3.7 1.7 -3.7 C 1.7 -4.0 2.0 -4.0 2.2 -4.0 L 2.2 -4.3 C 2.0 -4.3 1.3 -4.3 1.2 -4.3 C 0.9 -4.3 0.5 -4.3 0.2 -4.3 L 0.2 -4.0 C 0.7 -4.0 0.9 -4.0 1 -3.6 L 2.5 0 C 2.4 0.1 2.3 0.5 2.2 0.6 C 2.0 1.1 1.8 1.8 1.1 1.8 C 1.1 1.8 0.8 1.8 0.6 1.6 C 1.0 1.6 1.0 1.4 1.0 1.2 C 1.0 1.0 0.8 0.8 0.6 0.8 C 0.4 0.8 0.2 0.9 0.2 1.2 C 0.2 1.7 0.6 2.0 1.1 2.0 C 1.7 2.0 2.1 1.5 2.4 0.9 Z M 4.1 -3.3 " style="stroke:none;" />
</symbol>
<symbol id="j" overflow="visible">
<path d="M 1.1 -2.5 C 1.2 -4 2.0 -4.2 2.4 -4.2 C 3.4 -4.2 3.5 -2.9 3.5 -2.5 Z M 1.1 -2.3 L 3.9 -2.3 C 4.1 -2.3 4.1 -2.3 4.1 -2.5 C 4.1 -3.5 3.6 -4.5 2.4 -4.5 C 1.2 -4.5 0.3 -3.4 0.3 -2.2 C 0.3 -0.9 1.3 0.1 2.5 0.1 C 3.7 0.1 4.1 -1 4.1 -1.2 C 4.1 -1.3 4.1 -1.3 4 -1.3 C 3.9 -1.3 3.9 -1.2 3.9 -1.2 C 3.5 -0.1 2.6 -0.1 2.5 -0.1 C 2.0 -0.1 1.6 -0.4 1.4 -0.8 C 1.1 -1.3 1.1 -1.9 1.1 -2.3 Z M 1.1 -2.3 " style="stroke:none;" />
</symbol>
<symbol id="k" overflow="visible">
<path d="M 1.7 -3.3 L 1.7 -4.4 L 0.3 -4.3 L 0.3 -4.0 C 1.0 -4.0 1.1 -3.9 1.1 -3.4 L 1.1 -0.8 C 1.1 -0.3 1.0 -0.3 0.3 -0.3 L 0.3 0 C 0.7 -0.0 1.1 -0.0 1.4 -0.0 C 1.8 -0.0 2.3 -0.0 2.7 0 L 2.7 -0.3 L 2.5 -0.3 C 1.7 -0.3 1.7 -0.4 1.7 -0.8 L 1.7 -2.3 C 1.7 -3.3 2.1 -4.2 2.9 -4.2 C 3.0 -4.2 3.0 -4.2 3 -4.2 C 3.0 -4.2 2.8 -4.0 2.8 -3.8 C 2.8 -3.5 3.0 -3.4 3.2 -3.4 C 3.4 -3.4 3.6 -3.5 3.6 -3.8 C 3.6 -4.1 3.3 -4.4 2.9 -4.4 C 2.2 -4.4 1.8 -3.7 1.7 -3.3 Z M 1.7 -3.3 " style="stroke:none;" />
</symbol>
<symbol id="cb" overflow="visible">
<path d="M 1.8 -4.4 L 0.4 -4.3 L 0.4 -4.0 C 1.0 -4.0 1.1 -3.9 1.1 -3.4 L 1.1 -0.8 C 1.1 -0.3 1 -0.3 0.3 -0.3 L 0.3 0 C 0.6 -0.0 1.2 -0.0 1.4 -0.0 C 1.8 -0.0 2.1 -0.0 2.5 0 L 2.5 -0.3 C 1.8 -0.3 1.8 -0.4 1.8 -0.8 Z M 1.8 -6.1 C 1.8 -6.5 1.6 -6.7 1.3 -6.7 C 1.0 -6.7 0.8 -6.4 0.8 -6.1 C 0.8 -5.9 1.0 -5.6 1.3 -5.6 C 1.6 -5.6 1.8 -5.8 1.8 -6.1 Z M 1.8 -6.1 " style="stroke:none;" />
</symbol>
<symbol id="z" overflow="visible">
<path d="M 1.1 -3.4 L 1.1 -0.8 C 1.1 -0.3 1.0 -0.3 0.3 -0.3 L 0.3 0 C 0.7 -0.0 1.2 -0.0 1.5 -0.0 C 1.7 -0.0 2.2 -0.0 2.6 0 L 2.6 -0.3 C 1.9 -0.3 1.8 -0.3 1.8 -0.8 L 1.8 -2.6 C 1.8 -3.6 2.5 -4.2 3.1 -4.2 C 3.8 -4.2 3.9 -3.7 3.9 -3.1 L 3.9 -0.8 C 3.9 -0.3 3.8 -0.3 3.1 -0.3 L 3.1 0 C 3.4 -0.0 4.0 -0.0 4.2 -0.0 C 4.5 -0.0 5 -0.0 5.3 0 L 5.3 -0.3 C 4.8 -0.3 4.6 -0.3 4.6 -0.6 L 4.6 -2.5 C 4.6 -3.4 4.6 -3.7 4.2 -4.0 C 4.1 -4.2 3.8 -4.4 3.2 -4.4 C 2.5 -4.4 2 -4.0 1.7 -3.4 L 1.7 -4.4 L 0.3 -4.3 L 0.3 -4.0 C 1.0 -4.0 1.1 -3.9 1.1 -3.4 Z M 1.1 -3.4 " style="stroke:none;" />
</symbol>
<symbol id="o" overflow="visible">
<path d="M 1.7 -3.8 L 1.7 -4.4 L 0.3 -4.3 L 0.3 -4.0 C 1.0 -4.0 1.1 -3.9 1.1 -3.5 L 1.1 1.2 C 1.1 1.6 1.0 1.6 0.3 1.6 L 0.3 1.9 C 0.6 1.9 1.1 1.9 1.4 1.9 C 1.7 1.9 2.2 1.9 2.5 1.9 L 2.5 1.6 C 1.9 1.6 1.8 1.6 1.8 1.2 L 1.8 -0.6 C 1.8 -0.4 2.2 0.1 3.0 0.1 C 4.2 0.1 5.2 -0.9 5.2 -2.2 C 5.2 -3.4 4.2 -4.4 3.1 -4.4 C 2.3 -4.4 1.9 -4.0 1.7 -3.8 Z M 1.8 -1.1 L 1.8 -3.4 C 2.0 -3.9 2.5 -4.2 3.0 -4.2 C 3.8 -4.2 4.4 -3.3 4.4 -2.2 C 4.4 -1.0 3.7 -0.1 2.9 -0.1 C 2.5 -0.1 2.2 -0.3 1.9 -0.7 C 1.8 -0.9 1.8 -0.9 1.8 -1.1 Z M 1.8 -1.1 " style="stroke:none;" />
</symbol>
<symbol id="e" overflow="visible">
<path d="M 3.9 -0.8 L 3.9 0.1 L 5.3 0 L 5.3 -0.3 C 4.6 -0.3 4.6 -0.4 4.6 -0.9 L 4.6 -4.4 L 3.1 -4.3 L 3.1 -4.0 C 3.8 -4.0 3.9 -3.9 3.9 -3.4 L 3.9 -1.7 C 3.9 -0.8 3.4 -0.1 2.7 -0.1 C 1.8 -0.1 1.8 -0.6 1.8 -1.1 L 1.8 -4.4 L 0.3 -4.3 L 0.3 -4.0 C 1.1 -4.0 1.1 -4.0 1.1 -3.1 L 1.1 -1.6 C 1.1 -0.8 1.1 0.1 2.6 0.1 C 3.2 0.1 3.6 -0.2 3.9 -0.8 Z M 3.9 -0.8 " style="stroke:none;" />
</symbol>
<symbol id="f" overflow="visible">
<path d="M 1.7 -4.0 L 3.2 -4.0 L 3.2 -4.3 L 1.7 -4.3 L 1.7 -6.1 L 1.5 -6.1 C 1.5 -5.3 1.2 -4.2 0.2 -4.2 L 0.2 -4.0 L 1.0 -4.0 L 1.0 -1.2 C 1.0 -0.0 2.0 0.1 2.3 0.1 C 3.0 0.1 3.3 -0.6 3.3 -1.2 L 3.3 -1.8 L 3.1 -1.8 L 3.1 -1.2 C 3.1 -0.5 2.8 -0.1 2.4 -0.1 C 1.7 -0.1 1.7 -1.0 1.7 -1.2 Z M 1.7 -4.0 " style="stroke:none;" />
</symbol>
<symbol id="ab" overflow="visible">
<path d="M 2.9 -3.5 C 3.7 -3.8 4.3 -4.5 4.3 -5.3 C 4.3 -6.1 3.4 -6.6 2.5 -6.6 C 1.5 -6.6 0.7 -6.0 0.7 -5.3 C 0.7 -5.0 0.9 -4.8 1.2 -4.8 C 1.5 -4.8 1.7 -5.0 1.7 -5.3 C 1.7 -5.8 1.2 -5.8 1.1 -5.8 C 1.4 -6.3 2.0 -6.4 2.4 -6.4 C 2.8 -6.4 3.4 -6.2 3.4 -5.3 C 3.4 -5.2 3.3 -4.6 3.1 -4.1 C 2.8 -3.7 2.5 -3.6 2.2 -3.6 C 2.1 -3.6 1.9 -3.6 1.8 -3.6 C 1.7 -3.6 1.7 -3.6 1.7 -3.5 C 1.7 -3.4 1.7 -3.4 1.9 -3.4 L 2.3 -3.4 C 3.2 -3.4 3.5 -2.7 3.5 -1.7 C 3.5 -0.3 2.8 -0.1 2.4 -0.1 C 2.0 -0.1 1.2 -0.2 0.9 -0.8 C 1.2 -0.8 1.5 -1.0 1.5 -1.4 C 1.5 -1.7 1.3 -1.9 1.0 -1.9 C 0.7 -1.9 0.4 -1.8 0.4 -1.3 C 0.4 -0.4 1.3 0.2 2.4 0.2 C 3.7 0.2 4.6 -0.7 4.6 -1.7 C 4.6 -2.5 3.9 -3.3 2.9 -3.5 Z M 2.9 -3.5 " style="stroke:none;" />
</symbol>
<symbol id="bb" overflow="visible">
<path d="M 4.7 -2.1 C 4.7 -3.4 3.7 -4.5 2.5 -4.5 C 1.2 -4.5 0.3 -3.4 0.3 -2.1 C 0.3 -0.8 1.3 0.1 2.5 0.1 C 3.7 0.1 4.7 -0.9 4.7 -2.1 Z M 2.5 -0.1 C 2.1 -0.1 1.6 -0.3 1.4 -0.8 C 1.1 -1.2 1.1 -1.9 1.1 -2.2 C 1.1 -2.6 1.1 -3.1 1.3 -3.6 C 1.6 -4.0 2.1 -4.2 2.5 -4.2 C 2.9 -4.2 3.3 -4.0 3.6 -3.6 C 3.9 -3.2 3.9 -2.6 3.9 -2.2 C 3.9 -1.9 3.9 -1.3 3.7 -0.9 C 3.4 -0.4 3.0 -0.1 2.5 -0.1 Z M 2.5 -0.1 " style="stroke:none;" />
</symbol>
<symbol overflow="visible">
<path d="" style="stroke:none;" />
</symbol>
<symbol id="db" overflow="visible">
<path d="M 2.8 -3.6 L 2.8 -6.4 L 4 -6.4 C 5.6 -6.4 5.6 -5.6 5.6 -5.0 C 5.6 -4.4 5.6 -3.6 4.0 -3.6 Z M 5.5 -3.4 C 6.6 -3.7 7.1 -4.3 7.1 -5 C 7.1 -6 6.0 -6.8 4.2 -6.8 L 0.4 -6.8 L 0.4 -6.4 L 1.5 -6.4 L 1.5 -0.5 L 0.4 -0.5 L 0.4 0 C 0.8 -0.0 1.7 -0.0 2.1 -0.0 C 2.6 -0.0 3.5 -0.0 3.9 0 L 3.9 -0.5 L 2.8 -0.5 L 2.8 -3.2 L 4.0 -3.2 C 4.1 -3.2 4.6 -3.2 4.9 -2.9 C 5.2 -2.5 5.2 -2.4 5.2 -1.6 C 5.2 -1.0 5.2 -0.5 5.9 -0.2 C 6.3 0.1 7.0 0.1 7.4 0.1 C 8.4 0.1 8.5 -0.8 8.5 -1.0 C 8.5 -1.2 8.4 -1.2 8.3 -1.2 C 8.1 -1.2 8.1 -1.1 8.1 -0.9 C 8.0 -0.5 7.8 -0.2 7.5 -0.2 C 6.8 -0.2 6.8 -1.0 6.7 -1.4 C 6.7 -1.5 6.6 -2.2 6.6 -2.2 C 6.5 -2.9 5.9 -3.2 5.5 -3.4 Z M 5.5 -3.4 " style="stroke:none;" />
</symbol>
<symbol id="eb" overflow="visible">
<path d="M 4.6 -2.2 C 4.8 -2.2 4.9 -2.2 4.9 -2.4 C 4.9 -2.8 4.9 -3.5 4.4 -4.0 C 4 -4.3 3.5 -4.5 2.8 -4.5 C 1.2 -4.5 0.3 -3.5 0.3 -2.2 C 0.3 -0.9 1.3 0.1 2.9 0.1 C 4.5 0.1 4.9 -1 4.9 -1.2 C 4.9 -1.3 4.7 -1.3 4.7 -1.3 C 4.5 -1.3 4.5 -1.3 4.4 -1.1 C 4.2 -0.7 3.7 -0.3 3.0 -0.3 C 1.6 -0.3 1.6 -1.7 1.6 -2.2 Z M 1.6 -2.5 C 1.6 -2.9 1.6 -3.3 1.8 -3.6 C 2.1 -4.0 2.5 -4.2 2.8 -4.2 C 4.0 -4.2 4.0 -2.8 4.0 -2.5 Z M 1.6 -2.5 " style="stroke:none;" />
</symbol>
<symbol id="fb" overflow="visible">
<path d="M 6.4 -2.7 L 5.9 -2.7 C 5.9 -2.0 5.7 -0.5 3.9 -0.5 L 2.9 -0.5 L 2.9 -6.4 L 4.2 -6.4 L 4.2 -6.8 C 3.8 -6.8 2.7 -6.8 2.2 -6.8 C 1.8 -6.8 0.8 -6.8 0.4 -6.8 L 0.4 -6.4 L 1.5 -6.4 L 1.5 -0.5 L 0.4 -0.5 L 0.4 0 L 6.1 0 Z M 6.4 -2.7 " style="stroke:none;" />
</symbol>
<symbol id="gb" overflow="visible">
<path d="M 7.3 -6.1 C 7.3 -6.3 7.4 -6.3 7.6 -6.3 C 7.9 -6.4 7.9 -6.4 8.2 -6.4 L 8.4 -6.4 L 8.4 -6.8 C 8.0 -6.8 7.5 -6.8 7.1 -6.8 C 6.7 -6.8 6.2 -6.8 5.7 -6.8 L 5.7 -6.4 L 6.0 -6.4 C 6.2 -6.4 6.3 -6.4 6.5 -6.3 C 6.8 -6.3 6.8 -6.3 6.8 -6.1 L 6.8 -2.3 C 6.8 -0.8 5.7 -0.4 4.6 -0.4 C 2.9 -0.4 2.9 -1.7 2.9 -2.2 L 2.9 -6.4 L 4.0 -6.4 L 4.0 -6.8 C 3.6 -6.8 2.6 -6.8 2.2 -6.8 C 1.8 -6.8 0.8 -6.8 0.4 -6.8 L 0.4 -6.4 L 1.5 -6.4 L 1.5 -2.3 C 1.5 -1.0 2.5 0.1 4.6 0.1 C 6.5 0.1 7.3 -1.1 7.3 -2.3 Z M 7.3 -6.1 " style="stroke:none;" />
</symbol>
<symbol overflow="visible">
<path d="" style="stroke:none;" />
</symbol>
<symbol id="p" overflow="visible">
<path d="M 6.6 -2.3 C 6.7 -2.3 6.9 -2.3 6.9 -2.5 C 6.9 -2.7 6.7 -2.7 6.6 -2.7 L 1.2 -2.7 C 1 -2.7 0.8 -2.7 0.8 -2.5 C 0.8 -2.3 1 -2.3 1.2 -2.3 Z M 6.6 -2.3 " style="stroke:none;" />
</symbol>
</g>
<clipPath id="q" >
<path d="M 128 143 L 145 143 L 145 160.5 L 128 160.5 Z M 128 143 " />
</clipPath>
<clipPath id="r" >
<path d="M 125 66.1 L 129 66.1 L 129 74 L 125 74 Z M 125 66.1 " />
</clipPath>
</defs>
<g >
<path transform="matrix(1,0,0,-1,-95.4524,727.823)" d="M 240.0 704.0 C 240.0 708.4 236.4 712.0 232.0 712.0 C 227.6 712.0 224.0 708.4 224.0 704.0 C 224.0 699.6 227.6 696.0 232.0 696.0 C 236.4 696.0 240.0 699.6 240.0 704.0 " style="fill:none;stroke-width:0.4;stroke-linecap:butt;stroke-linejoin:round;stroke:rgb(0%,0%,0%);stroke-opacity:1;stroke-miterlimit:10;" />
<path transform="matrix(1,0,0,-1,-95.4524,727.823)" d="M 240.0 640.0 C 240.0 644.4 236.4 648.0 232.0 648.0 C 227.6 648.0 224.0 644.4 224.0 640.0 C 224.0 635.6 227.6 632.0 232.0 632.0 C 236.4 632.0 240.0 635.6 240.0 640.0 " style="fill:none;stroke-width:0.4;stroke-linecap:butt;stroke-linejoin:round;stroke:rgb(0%,0%,0%);stroke-opacity:1;stroke-miterlimit:10;" />
<g clip-rule="nonzero" clip-path="url(#q)">
<path transform="matrix(1,0,0,-1,-95.4524,727.823)" d="M 240.0 576.0 C 240.0 580.4 236.4 584.0 232.0 584.0 C 227.6 584.0 224.0 580.4 224.0 576.0 C 224.0 571.6 227.6 568.0 232.0 568.0 C 236.4 568.0 240.0 571.6 240.0 576.0 " style="fill:none;stroke-width:0.4;stroke-linecap:butt;stroke-linejoin:round;stroke:rgb(0%,0%,0%);stroke-opacity:1;stroke-miterlimit:10;" />
</g>
<path transform="matrix(1,0,0,-1,-95.4524,727.823)" d="M 144.0 672.0 C 144.0 676.4 140.4 680.0 136.0 680.0 C 131.6 680.0 128.0 676.4 128.0 672.0 C 128.0 667.6 131.6 664.0 136.0 664.0 C 140.4 664.0 144.0 667.6 144.0 672.0 " style="fill:none;stroke-width:0.4;stroke-linecap:butt;stroke-linejoin:round;stroke:rgb(0%,0%,0%);stroke-opacity:1;stroke-miterlimit:10;" />
<path transform="matrix(1,0,0,-1,-95.4524,727.823)" d="M 144.0 608.0 C 144.0 612.4 140.4 616.0 136.0 616.0 C 131.6 616.0 128.0 612.4 128.0 608.0 C 128.0 603.6 131.6 600.0 136.0 600.0 C 140.4 600.0 144.0 603.6 144.0 608.0 " style="fill:none;stroke-width:0.4;stroke-linecap:butt;stroke-linejoin:round;stroke:rgb(0%,0%,0%);stroke-opacity:1;stroke-miterlimit:10;" />
<path transform="matrix(1,0,0,-1,-95.4524,727.823)" d="M 144.0 672.0 L 224.0 704.0 " style="fill:none;stroke-width:0.4;stroke-linecap:butt;stroke-linejoin:round;stroke:rgb(0%,0%,0%);stroke-opacity:1;stroke-miterlimit:10;" />
<path transform="matrix(1,0,0,-1,-95.4524,727.823)" d="M 224.0 704.0 L 216.6 703.6 L 218.4 699.2 Z M 224.0 704.0 " style="fill-rule:evenodd;fill:rgb(0%,0%,0%);fill-opacity:1;stroke-width:0.4;stroke-linecap:butt;stroke-linejoin:round;stroke:rgb(0%,0%,0%);stroke-opacity:1;stroke-miterlimit:10;" />
<path transform="matrix(1,0,0,-1,-95.4524,727.823)" d="M 144.0 672.0 L 224.0 640.0 " style="fill:none;stroke-width:0.4;stroke-linecap:butt;stroke-linejoin:round;stroke:rgb(0%,0%,0%);stroke-opacity:1;stroke-miterlimit:10;" />
<path transform="matrix(1,0,0,-1,-95.4524,727.823)" d="M 224.0 640.0 L 218.4 644.8 L 216.6 640.4 Z M 224.0 640.0 " style="fill-rule:evenodd;fill:rgb(0%,0%,0%);fill-opacity:1;stroke-width:0.4;stroke-linecap:butt;stroke-linejoin:round;stroke:rgb(0%,0%,0%);stroke-opacity:1;stroke-miterlimit:10;" />
<path transform="matrix(1,0,0,-1,-95.4524,727.823)" d="M 144.0 672.0 L 224.0 576.0 " style="fill:none;stroke-width:0.4;stroke-linecap:butt;stroke-linejoin:round;stroke:rgb(0%,0%,0%);stroke-opacity:1;stroke-miterlimit:10;" />
<path transform="matrix(1,0,0,-1,-95.4524,727.823)" d="M 224.0 576.0 L 221.3 582.9 L 217.7 579.9 Z M 224.0 576.0 " style="fill-rule:evenodd;fill:rgb(0%,0%,0%);fill-opacity:1;stroke-width:0.4;stroke-linecap:butt;stroke-linejoin:round;stroke:rgb(0%,0%,0%);stroke-opacity:1;stroke-miterlimit:10;" />
<path transform="matrix(1,0,0,-1,-95.4524,727.823)" d="M 144.0 608.0 L 224.0 704.0 " style="fill:none;stroke-width:0.4;stroke-linecap:butt;stroke-linejoin:round;stroke:rgb(0%,0%,0%);stroke-opacity:1;stroke-miterlimit:10;" />
<path transform="matrix(1,0,0,-1,-95.4524,727.823)" d="M 224.0 704.0 L 217.7 700.1 L 221.3 697.1 Z M 224.0 704.0 " style="fill-rule:evenodd;fill:rgb(0%,0%,0%);fill-opacity:1;stroke-width:0.4;stroke-linecap:butt;stroke-linejoin:round;stroke:rgb(0%,0%,0%);stroke-opacity:1;stroke-miterlimit:10;" />
<path transform="matrix(1,0,0,-1,-95.4524,727.823)" d="M 144.0 608.0 L 224.0 640.0 " style="fill:none;stroke-width:0.4;stroke-linecap:butt;stroke-linejoin:round;stroke:rgb(0%,0%,0%);stroke-opacity:1;stroke-miterlimit:10;" />
<path transform="matrix(1,0,0,-1,-95.4524,727.823)" d="M 224.0 640.0 L 216.6 639.6 L 218.4 635.2 Z M 224.0 640.0 " style="fill-rule:evenodd;fill:rgb(0%,0%,0%);fill-opacity:1;stroke-width:0.4;stroke-linecap:butt;stroke-linejoin:round;stroke:rgb(0%,0%,0%);stroke-opacity:1;stroke-miterlimit:10;" />
<path transform="matrix(1,0,0,-1,-95.4524,727.823)" d="M 144.0 608.0 L 224.0 576.0 " style="fill:none;stroke-width:0.4;stroke-linecap:butt;stroke-linejoin:round;stroke:rgb(0%,0%,0%);stroke-opacity:1;stroke-miterlimit:10;" />
<path transform="matrix(1,0,0,-1,-95.4524,727.823)" d="M 224.0 576.0 L 218.4 580.8 L 216.6 576.4 Z M 224.0 576.0 " style="fill-rule:evenodd;fill:rgb(0%,0%,0%);fill-opacity:1;stroke-width:0.4;stroke-linecap:butt;stroke-linejoin:round;stroke:rgb(0%,0%,0%);stroke-opacity:1;stroke-miterlimit:10;" />
<g style="fill:rgb(0%,0%,0%);fill-opacity:1;">
<use y="58.3" x="1" xlink:href="#l" />
<use y="59.8" x="6.7" xlink:href="#m" />
<use y="58.3" x="13.9" xlink:href="#a" />
<use y="58.3" x="24.4" xlink:href="#c" />
<use y="122.2" x="1.5" xlink:href="#l" />
<use y="123.6" x="7.2" xlink:href="#n" />
<use y="122.2" x="14.4" xlink:href="#a" />
<use y="122.2" x="24.9" xlink:href="#d" />
<use y="9.4" x="115.0" xlink:href="#db" />
<use y="9.4" x="123.6" xlink:href="#eb" />
<use y="9.4" x="128.9" xlink:href="#fb" />
<use y="9.4" x="135.7" xlink:href="#gb" />
<use y="9.4" x="147.9" xlink:href="#g" />
<use y="9.4" x="150.7" xlink:href="#h" />
<use y="9.4" x="155.4" xlink:href="#i" />
<use y="9.4" x="160.3" xlink:href="#j" />
<use y="9.4" x="164.8" xlink:href="#k" />
<use y="7.9" x="15.6" xlink:href="#cb" />
<use y="7.9" x="18.4" xlink:href="#z" />
<use y="7.9" x="23.9" xlink:href="#o" />
<use y="7.9" x="29.4" xlink:href="#e" />
<use y="7.9" x="35.0" xlink:href="#f" />
<use y="7.9" x="42.2" xlink:href="#g" />
<use y="7.9" x="44.9" xlink:href="#h" />
<use y="7.9" x="49.6" xlink:href="#i" />
<use y="7.9" x="54.6" xlink:href="#j" />
<use y="7.9" x="59.0" xlink:href="#k" />
</g>
<path transform="matrix(1,0,0,-1,-95.4524,727.823)" d="M 336.0 640.0 C 336.0 644.4 332.4 648.0 328.0 648.0 C 323.6 648.0 320.0 644.4 320.0 640.0 C 320.0 635.6 323.6 632.0 328.0 632.0 C 332.4 632.0 336.0 635.6 336.0 640.0 " style="fill:none;stroke-width:0.4;stroke-linecap:butt;stroke-linejoin:round;stroke:rgb(0%,0%,0%);stroke-opacity:1;stroke-miterlimit:10;" />
<path transform="matrix(1,0,0,-1,-95.4524,727.823)" d="M 240.0 640.0 L 320.0 640.0 " style="fill:none;stroke-width:0.4;stroke-linecap:butt;stroke-linejoin:round;stroke:rgb(0%,0%,0%);stroke-opacity:1;stroke-miterlimit:10;" />
<path transform="matrix(1,0,0,-1,-95.4524,727.823)" d="M 320.0 640.0 L 313.0 642.3 L 313.0 637.7 Z M 320.0 640.0 " style="fill-rule:evenodd;fill:rgb(0%,0%,0%);fill-opacity:1;stroke-width:0.4;stroke-linecap:butt;stroke-linejoin:round;stroke:rgb(0%,0%,0%);stroke-opacity:1;stroke-miterlimit:10;" />
<path transform="matrix(1,0,0,-1,-95.4524,727.823)" d="M 240.0 704.0 L 320.0 640.0 " style="fill:none;stroke-width:0.4;stroke-linecap:butt;stroke-linejoin:round;stroke:rgb(0%,0%,0%);stroke-opacity:1;stroke-miterlimit:10;" />
<path transform="matrix(1,0,0,-1,-95.4524,727.823)" d="M 320.0 640.0 L 316.0 646.2 L 313.1 642.6 Z M 320.0 640.0 " style="fill-rule:evenodd;fill:rgb(0%,0%,0%);fill-opacity:1;stroke-width:0.4;stroke-linecap:butt;stroke-linejoin:round;stroke:rgb(0%,0%,0%);stroke-opacity:1;stroke-miterlimit:10;" />
<path transform="matrix(1,0,0,-1,-95.4524,727.823)" d="M 240.0 576.0 L 320.0 640.0 " style="fill:none;stroke-width:0.4;stroke-linecap:butt;stroke-linejoin:round;stroke:rgb(0%,0%,0%);stroke-opacity:1;stroke-miterlimit:10;" />
<path transform="matrix(1,0,0,-1,-95.4524,727.823)" d="M 320.0 640.0 L 313.1 637.4 L 316.0 633.8 Z M 320.0 640.0 " style="fill-rule:evenodd;fill:rgb(0%,0%,0%);fill-opacity:1;stroke-width:0.4;stroke-linecap:butt;stroke-linejoin:round;stroke:rgb(0%,0%,0%);stroke-opacity:1;stroke-miterlimit:10;" />
<g style="fill:rgb(0%,0%,0%);fill-opacity:1;">
<use y="33.2" x="64.1" xlink:href="#b" />
<use y="34.7" x="71.2" xlink:href="#m" />
<use y="33.2" x="78.5" xlink:href="#a" />
<use y="33.2" x="89.0" xlink:href="#d" />
<use y="51.4" x="109.6" xlink:href="#b" />
<use y="52.8" x="116.7" xlink:href="#n" />
<use y="51.4" x="124.0" xlink:href="#a" />
<use y="51.4" x="134.5" xlink:href="#c" />
<use y="73.5" x="99.8" xlink:href="#b" />
<use y="75.0" x="107.0" xlink:href="#s" />
<use y="73.5" x="114.2" xlink:href="#a" />
</g>
<g clip-rule="nonzero" clip-path="url(#r)">
<g style="fill:rgb(0%,0%,0%);fill-opacity:1;">
<use y="73.5" x="124.7" xlink:href="#c" />
</g>
</g>
<g style="fill:rgb(0%,0%,0%);fill-opacity:1;">
<use y="103.9" x="101.2" xlink:href="#b" />
<use y="105.4" x="108.3" xlink:href="#t" />
<use y="103.9" x="115.5" xlink:href="#a" />
<use y="103.9" x="126.0" xlink:href="#p" />
<use y="103.9" x="133.8" xlink:href="#d" />
<use y="127.9" x="108.9" xlink:href="#b" />
<use y="129.4" x="116.0" xlink:href="#u" />
<use y="127.9" x="123.3" xlink:href="#a" />
<use y="127.9" x="133.8" xlink:href="#c" />
<use y="148.3" x="71.6" xlink:href="#b" />
<use y="149.8" x="78.8" xlink:href="#v" />
<use y="148.3" x="86.0" xlink:href="#a" />
<use y="148.3" x="96.5" xlink:href="#d" />
<use y="50.1" x="181.5" xlink:href="#b" />
<use y="51.6" x="188.6" xlink:href="#w" />
<use y="50.1" x="195.8" xlink:href="#a" />
<use y="50.1" x="206.4" xlink:href="#p" />
<use y="50.1" x="214.1" xlink:href="#c" />
<use y="131.1" x="181.5" xlink:href="#b" />
<use y="132.6" x="188.6" xlink:href="#x" />
<use y="131.1" x="195.8" xlink:href="#a" />
<use y="131.1" x="206.4" xlink:href="#d" />
<use y="85.3" x="157.9" xlink:href="#b" />
<use y="86.8" x="165.0" xlink:href="#y" />
<use y="85.3" x="172.2" xlink:href="#a" />
<use y="85.3" x="182.7" xlink:href="#ab" />
<use y="9.9" x="205.8" xlink:href="#bb" />
<use y="9.9" x="210.8" xlink:href="#e" />
<use y="9.9" x="216.3" xlink:href="#f" />
<use y="9.9" x="220.2" xlink:href="#o" />
<use y="9.9" x="225.7" xlink:href="#e" />
<use y="9.9" x="231.3" xlink:href="#f" />
<use y="9.9" x="238.4" xlink:href="#g" />
<use y="9.9" x="241.2" xlink:href="#h" />
<use y="9.9" x="245.9" xlink:href="#i" />
<use y="9.9" x="250.9" xlink:href="#j" />
<use y="9.9" x="255.3" xlink:href="#k" />
</g>
</g>
</svg>
