<?xml version="1.0" encoding="UTF-8" standalone="no"?>
<!DOCTYPE svg PUBLIC "-//W3C//DTD SVG 1.1//EN"
 "http://www.w3.org/Graphics/SVG/1.1/DTD/svg11.dtd">
<!-- Generated by graphviz version 2.38.0 (20140413.2041)
 -->
<!-- Title: G Pages: 1 -->
<svg width="278pt" height="548pt"
 viewBox="0.00 0.00 278.00 548.00" xmlns="http://www.w3.org/2000/svg" xmlns:xlink="http://www.w3.org/1999/xlink">
<g id="graph0" class="graph" transform="scale(1 1) rotate(0) translate(4 544)">
<title>G</title>
<polygon fill="none" stroke="none" points="-4,4 -4,-544 274,-544 274,4 -4,4"/>
<!-- x -->
<g id="node1" class="node"><title>x</title>
<ellipse fill="none" stroke="black" cx="27" cy="-522" rx="27" ry="18"/>
<text text-anchor="start" x="23.5" y="-519.3" font-family="Times,serif" font-weight="bold" font-size="14.00">x</text>
</g>
<!-- xW1 -->
<g id="node3" class="node"><title>xW1</title>
<ellipse fill="none" stroke="black" cx="63" cy="-450" rx="27" ry="18"/>
<text text-anchor="start" x="60" y="-446.3" font-family="Times,serif" font-size="14.00">⋅</text>
</g>
<!-- x&#45;&gt;xW1 -->
<g id="edge1" class="edge"><title>x&#45;&gt;xW1</title>
<path fill="none" stroke="black" d="M35.3496,-504.765C39.7115,-496.283 45.1469,-485.714 50.0413,-476.197"/>
<polygon fill="black" stroke="black" points="53.2346,-477.641 54.6957,-467.147 47.0096,-474.439 53.2346,-477.641"/>
</g>
<!-- W1 -->
<g id="node2" class="node"><title>W1</title>
<ellipse fill="none" stroke="black" cx="99" cy="-522" rx="27" ry="18"/>
<text text-anchor="start" x="89" y="-519.3" font-family="Times,serif" font-weight="bold" font-size="14.00">W</text>
<text text-anchor="start" x="104" y="-519.3" font-family="Times,serif" baseline-shift="super" font-size="10.00">1</text>
</g>
<!-- W1&#45;&gt;xW1 -->
<g id="edge2" class="edge"><title>W1&#45;&gt;xW1</title>
<path fill="none" stroke="black" d="M90.6504,-504.765C86.2885,-496.283 80.8531,-485.714 75.9587,-476.197"/>
<polygon fill="black" stroke="black" points="78.9904,-474.439 71.3043,-467.147 72.7654,-477.641 78.9904,-474.439"/>
</g>
<!-- xW1b1 -->
<g id="node5" class="node"><title>xW1b1</title>
<ellipse fill="none" stroke="black" cx="99" cy="-378" rx="27" ry="18"/>
<text text-anchor="start" x="94.5" y="-374.3" font-family="Times,serif" font-size="14.00">+</text>
</g>
<!-- xW1&#45;&gt;xW1b1 -->
<g id="edge3" class="edge"><title>xW1&#45;&gt;xW1b1</title>
<path fill="none" stroke="black" d="M71.3496,-432.765C75.7115,-424.283 81.1469,-413.714 86.0413,-404.197"/>
<polygon fill="black" stroke="black" points="89.2346,-405.641 90.6957,-395.147 83.0096,-402.439 89.2346,-405.641"/>
</g>
<!-- b1 -->
<g id="node4" class="node"><title>b1</title>
<ellipse fill="none" stroke="black" cx="135" cy="-450" rx="27" ry="18"/>
<text text-anchor="start" x="128.5" y="-447.3" font-family="Times,serif" font-weight="bold" font-size="14.00">b</text>
<text text-anchor="start" x="136.5" y="-447.3" font-family="Times,serif" baseline-shift="super" font-size="10.00">1</text>
</g>
<!-- b1&#45;&gt;xW1b1 -->
<g id="edge4" class="edge"><title>b1&#45;&gt;xW1b1</title>
<path fill="none" stroke="black" d="M126.65,-432.765C122.288,-424.283 116.853,-413.714 111.959,-404.197"/>
<polygon fill="black" stroke="black" points="114.99,-402.439 107.304,-395.147 108.765,-405.641 114.99,-402.439"/>
</g>
<!-- h -->
<g id="node6" class="node"><title>h</title>
<ellipse fill="none" stroke="black" cx="99" cy="-306" rx="27" ry="18"/>
<text text-anchor="start" x="94" y="-303.3" font-family="Times,serif" font-size="14.00">f</text>
<text text-anchor="start" x="99" y="-303.3" font-family="Times,serif" baseline-shift="super" font-size="10.00">1</text>
</g>
<!-- xW1b1&#45;&gt;h -->
<g id="edge5" class="edge"><title>xW1b1&#45;&gt;h</title>
<path fill="none" stroke="black" d="M99,-359.697C99,-351.983 99,-342.712 99,-334.112"/>
<polygon fill="black" stroke="black" points="102.5,-334.104 99,-324.104 95.5001,-334.104 102.5,-334.104"/>
</g>
<!-- hW2 -->
<g id="node8" class="node"><title>hW2</title>
<ellipse fill="none" stroke="black" cx="135" cy="-234" rx="27" ry="18"/>
<text text-anchor="start" x="132" y="-230.3" font-family="Times,serif" font-size="14.00">⋅</text>
</g>
<!-- h&#45;&gt;hW2 -->
<g id="edge6" class="edge"><title>h&#45;&gt;hW2</title>
<path fill="none" stroke="black" d="M107.35,-288.765C111.712,-280.283 117.147,-269.714 122.041,-260.197"/>
<polygon fill="black" stroke="black" points="125.235,-261.641 126.696,-251.147 119.01,-258.439 125.235,-261.641"/>
</g>
<!-- W2 -->
<g id="node7" class="node"><title>W2</title>
<ellipse fill="none" stroke="black" cx="171" cy="-306" rx="27" ry="18"/>
<text text-anchor="start" x="161" y="-303.3" font-family="Times,serif" font-weight="bold" font-size="14.00">W</text>
<text text-anchor="start" x="176" y="-303.3" font-family="Times,serif" baseline-shift="super" font-size="10.00">2</text>
</g>
<!-- W2&#45;&gt;hW2 -->
<g id="edge7" class="edge"><title>W2&#45;&gt;hW2</title>
<path fill="none" stroke="black" d="M162.65,-288.765C158.288,-280.283 152.853,-269.714 147.959,-260.197"/>
<polygon fill="black" stroke="black" points="150.99,-258.439 143.304,-251.147 144.765,-261.641 150.99,-258.439"/>
</g>
<!-- hW2b2 -->
<g id="node10" class="node"><title>hW2b2</title>
<ellipse fill="none" stroke="black" cx="171" cy="-162" rx="27" ry="18"/>
<text text-anchor="start" x="166.5" y="-158.3" font-family="Times,serif" font-size="14.00">+</text>
</g>
<!-- hW2&#45;&gt;hW2b2 -->
<g id="edge8" class="edge"><title>hW2&#45;&gt;hW2b2</title>
<path fill="none" stroke="black" d="M143.35,-216.765C147.712,-208.283 153.147,-197.714 158.041,-188.197"/>
<polygon fill="black" stroke="black" points="161.235,-189.641 162.696,-179.147 155.01,-186.439 161.235,-189.641"/>
</g>
<!-- b2 -->
<g id="node9" class="node"><title>b2</title>
<ellipse fill="none" stroke="black" cx="207" cy="-234" rx="27" ry="18"/>
<text text-anchor="start" x="200.5" y="-231.3" font-family="Times,serif" font-weight="bold" font-size="14.00">b</text>
<text text-anchor="start" x="208.5" y="-231.3" font-family="Times,serif" baseline-shift="super" font-size="10.00">2</text>
</g>
<!-- b2&#45;&gt;hW2b2 -->
<g id="edge9" class="edge"><title>b2&#45;&gt;hW2b2</title>
<path fill="none" stroke="black" d="M198.65,-216.765C194.288,-208.283 188.853,-197.714 183.959,-188.197"/>
<polygon fill="black" stroke="black" points="186.99,-186.439 179.304,-179.147 180.765,-189.641 186.99,-186.439"/>
</g>
<!-- o -->
<g id="node11" class="node"><title>o</title>
<ellipse fill="none" stroke="black" cx="171" cy="-90" rx="27" ry="18"/>
<text text-anchor="start" x="166" y="-87.3" font-family="Times,serif" font-size="14.00">f</text>
<text text-anchor="start" x="171" y="-87.3" font-family="Times,serif" baseline-shift="super" font-size="10.00">2</text>
</g>
<!-- hW2b2&#45;&gt;o -->
<g id="edge10" class="edge"><title>hW2b2&#45;&gt;o</title>
<path fill="none" stroke="black" d="M171,-143.697C171,-135.983 171,-126.712 171,-118.112"/>
<polygon fill="black" stroke="black" points="174.5,-118.104 171,-108.104 167.5,-118.104 174.5,-118.104"/>
</g>
<!-- L -->
<g id="node13" class="node"><title>L</title>
<ellipse fill="none" stroke="black" cx="207" cy="-18" rx="27" ry="18"/>
<text text-anchor="middle" x="207" y="-14.3" font-family="Times,serif" font-size="14.00">L</text>
</g>
<!-- o&#45;&gt;L -->
<g id="edge11" class="edge"><title>o&#45;&gt;L</title>
<path fill="none" stroke="black" d="M179.35,-72.7646C183.712,-64.2831 189.147,-53.7144 194.041,-44.1974"/>
<polygon fill="black" stroke="black" points="197.235,-45.6409 198.696,-35.1473 191.01,-42.4395 197.235,-45.6409"/>
</g>
<!-- y -->
<g id="node12" class="node"><title>y</title>
<ellipse fill="none" stroke="black" cx="243" cy="-90" rx="27" ry="18"/>
<text text-anchor="middle" x="243" y="-86.3" font-family="Times,serif" font-size="14.00">y</text>
</g>
<!-- y&#45;&gt;L -->
<g id="edge12" class="edge"><title>y&#45;&gt;L</title>
<path fill="none" stroke="black" d="M234.65,-72.7646C230.288,-64.2831 224.853,-53.7144 219.959,-44.1974"/>
<polygon fill="black" stroke="black" points="222.99,-42.4395 215.304,-35.1473 216.765,-45.6409 222.99,-42.4395"/>
</g>
</g>
</svg>
