<?xml version="1.0" encoding="UTF-8" standalone="no"?>
<!DOCTYPE svg PUBLIC "-//W3C//DTD SVG 1.1//EN"
 "http://www.w3.org/Graphics/SVG/1.1/DTD/svg11.dtd">
<!-- Generated by graphviz version 2.38.0 (20140413.2041)
 -->
<!-- Title: G Pages: 1 -->
<svg width="273pt" height="276pt"
 viewBox="0.00 0.00 273.00 276.00" xmlns="http://www.w3.org/2000/svg" xmlns:xlink="http://www.w3.org/1999/xlink">
<g id="graph0" class="graph" transform="scale(1 1) rotate(0) translate(4 272)">
<title>G</title>
<polygon fill="none" stroke="none" points="-4,4 -4,-272 269,-272 269,4 -4,4"/>
<g id="clust1" class="cluster"><title>cluster_1</title>
<polygon fill="none" stroke="black" points="97.5,-8 97.5,-222 167.5,-222 167.5,-8 97.5,-8"/>
</g>
<!-- s1 -->
<!-- o1 -->
<!-- s1&#45;&gt;o1 -->
<g id="edge5" class="edge"><title>s1&#45;&gt;o1</title>
<path fill="none" stroke="black" d="M166.904,-196C177.754,-196 189.841,-196 200.881,-196"/>
<polygon fill="black" stroke="black" points="200.891,-199.5 210.891,-196 200.891,-192.5 200.891,-199.5"/>
<text text-anchor="start" x="182" y="-200.8" font-family="Times,serif" font-size="14.00">o</text>
<text text-anchor="start" x="189" y="-200.8" font-family="Times,serif" baseline-shift="sub" font-size="8.00">1</text>
</g>
<!-- s2 -->
<!-- o2 -->
<!-- s2&#45;&gt;o2 -->
<g id="edge6" class="edge"><title>s2&#45;&gt;o2</title>
<path fill="none" stroke="black" d="M166.904,-142C177.754,-142 189.841,-142 200.881,-142"/>
<polygon fill="black" stroke="black" points="200.891,-145.5 210.891,-142 200.891,-138.5 200.891,-145.5"/>
<text text-anchor="start" x="182" y="-146.8" font-family="Times,serif" font-size="14.00">o</text>
<text text-anchor="start" x="189" y="-146.8" font-family="Times,serif" baseline-shift="sub" font-size="8.00">2</text>
</g>
<!-- s3 -->
<!-- o3 -->
<!-- s3&#45;&gt;o3 -->
<g id="edge7" class="edge"><title>s3&#45;&gt;o3</title>
<path fill="none" stroke="black" d="M166.904,-88C177.754,-88 189.841,-88 200.881,-88"/>
<polygon fill="black" stroke="black" points="200.891,-91.5001 210.891,-88 200.891,-84.5001 200.891,-91.5001"/>
<text text-anchor="start" x="182" y="-92.8" font-family="Times,serif" font-size="14.00">o</text>
<text text-anchor="start" x="189" y="-92.8" font-family="Times,serif" baseline-shift="sub" font-size="8.00">3</text>
</g>
<!-- s4 -->
<!-- o4 -->
<!-- s4&#45;&gt;o4 -->
<g id="edge8" class="edge"><title>s4&#45;&gt;o4</title>
<path fill="none" stroke="black" d="M166.904,-34C177.754,-34 189.841,-34 200.881,-34"/>
<polygon fill="black" stroke="black" points="200.891,-37.5001 210.891,-34 200.891,-30.5001 200.891,-37.5001"/>
<text text-anchor="start" x="182" y="-38.8" font-family="Times,serif" font-size="14.00">o</text>
<text text-anchor="start" x="189" y="-38.8" font-family="Times,serif" baseline-shift="sub" font-size="8.00">4</text>
</g>
<!-- z1 -->
<!-- z1&#45;&gt;s1 -->
<g id="edge1" class="edge"><title>z1&#45;&gt;s1</title>
<path fill="none" stroke="black" d="M54.1174,-196C66.6202,-196 81.7936,-196 95.3806,-196"/>
<polygon fill="black" stroke="black" points="87.5002,-199.5 97.5,-196 87.4998,-192.5 87.5002,-199.5"/>
<text text-anchor="start" x="72" y="-200.8" font-family="Times,serif" font-size="14.00">z</text>
<text text-anchor="start" x="79" y="-200.8" font-family="Times,serif" baseline-shift="sub" font-size="8.00">1</text>
</g>
<!-- z2 -->
<!-- z2&#45;&gt;s2 -->
<g id="edge2" class="edge"><title>z2&#45;&gt;s2</title>
<path fill="none" stroke="black" d="M54.1174,-142C66.6202,-142 81.7936,-142 95.3806,-142"/>
<polygon fill="black" stroke="black" points="87.5002,-145.5 97.5,-142 87.4998,-138.5 87.5002,-145.5"/>
<text text-anchor="start" x="72" y="-146.8" font-family="Times,serif" font-size="14.00">z</text>
<text text-anchor="start" x="79" y="-146.8" font-family="Times,serif" baseline-shift="sub" font-size="8.00">2</text>
</g>
<!-- z3 -->
<!-- z3&#45;&gt;s3 -->
<g id="edge3" class="edge"><title>z3&#45;&gt;s3</title>
<path fill="none" stroke="black" d="M54.1174,-88C66.6202,-88 81.7936,-88 95.3806,-88"/>
<polygon fill="black" stroke="black" points="87.5002,-91.5005 97.5,-88 87.4998,-84.5005 87.5002,-91.5005"/>
<text text-anchor="start" x="72" y="-92.8" font-family="Times,serif" font-size="14.00">z</text>
<text text-anchor="start" x="79" y="-92.8" font-family="Times,serif" baseline-shift="sub" font-size="8.00">3</text>
</g>
<!-- z4 -->
<!-- z4&#45;&gt;s4 -->
<g id="edge4" class="edge"><title>z4&#45;&gt;s4</title>
<path fill="none" stroke="black" d="M54.1174,-34C66.6202,-34 81.7936,-34 95.3806,-34"/>
<polygon fill="black" stroke="black" points="87.5002,-37.5005 97.5,-34 87.4998,-30.5005 87.5002,-37.5005"/>
<text text-anchor="start" x="72" y="-38.8" font-family="Times,serif" font-size="14.00">z</text>
<text text-anchor="start" x="79" y="-38.8" font-family="Times,serif" baseline-shift="sub" font-size="8.00">4</text>
</g>
<!-- lz -->
<!-- ls -->
<g id="node14" class="node"><title>ls</title>
<text text-anchor="middle" x="132.5" y="-246.3" font-family="Times,serif" font-size="14.00">Softmax</text>
</g>
<!-- lz&#45;&gt;ls -->
</g>
</svg>
