<?xml version="1.0" encoding="UTF-8" standalone="no"?>
<svg
   xmlns:dc="http://purl.org/dc/elements/1.1/"
   xmlns:cc="http://creativecommons.org/ns#"
   xmlns:rdf="http://www.w3.org/1999/02/22-rdf-syntax-ns#"
   xmlns:svg="http://www.w3.org/2000/svg"
   xmlns="http://www.w3.org/2000/svg"
   xmlns:sodipodi="http://sodipodi.sourceforge.net/DTD/sodipodi-0.dtd"
   xmlns:inkscape="http://www.inkscape.org/namespaces/inkscape"
   viewBox="0 0 220.8936 195.83821"
   height="195.8382"
   width="220.89359"
   xml:space="preserve"
   version="1.1"
   id="svg88"
   sodipodi:docname="resnet-block.svg"
   inkscape:version="0.92.1 r15371"><metadata
     id="metadata92"><rdf:RDF><cc:Work
         rdf:about=""><dc:format>image/svg+xml</dc:format><dc:type
           rdf:resource="http://purl.org/dc/dcmitype/StillImage" /><dc:title></dc:title></cc:Work></rdf:RDF></metadata><sodipodi:namedview
     pagecolor="#ffffff"
     bordercolor="#666666"
     borderopacity="1"
     objecttolerance="10"
     gridtolerance="10"
     guidetolerance="10"
     inkscape:pageopacity="0"
     inkscape:pageshadow="2"
     inkscape:window-width="1680"
     inkscape:window-height="1023"
     id="namedview90"
     showgrid="false"
     fit-margin-top="0"
     fit-margin-left="0"
     fit-margin-right="0"
     fit-margin-bottom="0"
     inkscape:zoom="2.4947146"
     inkscape:cx="50.766647"
     inkscape:cy="110.27921"
     inkscape:window-x="0"
     inkscape:window-y="0"
     inkscape:window-maximized="1"
     inkscape:current-layer="svg88" /><defs
     id="defs2" /><g
     id="g1628"
     transform="matrix(2.1001415,0,0,2.1001415,-5.4603679,-0.40666952)"><path
       inkscape:connector-curvature="0"
       id="path6"
       d="M 2.9333333,38.776971 H 66.799998 v 9.466666 H 2.9333333 Z"
       style="fill:#ffffff;fill-opacity:1;fill-rule:nonzero;stroke:#000000;stroke-width:0.66666663;stroke-linecap:round;stroke-linejoin:round;stroke-miterlimit:10;stroke-dasharray:none;stroke-opacity:1" /><text
       y="45.903454"
       x="22.939056"
       id="text10"
       transform="scale(0.99976406,1.000236)"
       style="font-variant:normal;font-weight:normal;font-size:7.9981122px;font-family:'DejaVu Sans';-inkscape-font-specification:DejaVuSans;writing-mode:lr-tb;fill:#000000;fill-opacity:1;fill-rule:nonzero;stroke:none;stroke-width:1.33301866"><tspan
         style="stroke-width:1.33301866"
         id="tspan8"
         x="22.939056 27.071415 30.537264 34.669621 36.669151 38.402077 42.534431"
         y="45.903454">3x3, 64</tspan></text>
<path
       inkscape:connector-curvature="0"
       id="path12"
       d="M 2.9333333,19.710305 H 66.799998 v 9.466666 H 2.9333333 Z"
       style="fill:#ffffff;fill-opacity:1;fill-rule:nonzero;stroke:#000000;stroke-width:0.66666663;stroke-linecap:round;stroke-linejoin:round;stroke-miterlimit:10;stroke-dasharray:none;stroke-opacity:1" /><text
       y="26.785126"
       x="22.939056"
       id="text16"
       transform="scale(0.99976406,1.000236)"
       style="font-variant:normal;font-weight:normal;font-size:7.9981122px;font-family:'DejaVu Sans';-inkscape-font-specification:DejaVuSans;writing-mode:lr-tb;fill:#000000;fill-opacity:1;fill-rule:nonzero;stroke:none;stroke-width:1.33301866"><tspan
         style="stroke-width:1.33301866"
         id="tspan14"
         x="22.939056 27.071415 30.537264 34.669621 36.669151 38.402077 42.534431"
         y="26.785126">1x1, 64</tspan></text>
<g
       id="g20"
       transform="matrix(1.3333333,0,0,-1.3333333,0,-0.0230283)"><path
         inkscape:connector-curvature="0"
         id="path18"
         d="m 26.2,-21.8 v -5.1"
         style="fill:none;stroke:#000000;stroke-width:0.5;stroke-linecap:round;stroke-linejoin:round;stroke-miterlimit:10;stroke-dasharray:none;stroke-opacity:1" /></g><path
       inkscape:connector-curvature="0"
       id="path22"
       d="m 34.933332,38.510304 -1.733333,-3.466667 c 1.066667,0.533334 2.4,0.533334 3.466667,0 l -1.733334,3.466667"
       style="fill:#000000;fill-opacity:1;fill-rule:evenodd;stroke:none;stroke-width:1.33333325" /><g
       id="g26"
       transform="matrix(1.3333333,0,0,-1.3333333,0,-0.0230283)"><path
         inkscape:connector-curvature="0"
         id="path24"
         d="m 26.2,-3.7 v -9"
         style="fill:none;stroke:#000000;stroke-width:0.5;stroke-linecap:round;stroke-linejoin:round;stroke-miterlimit:10;stroke-dasharray:none;stroke-opacity:1" /></g><path
       inkscape:connector-curvature="0"
       id="path28"
       d="m 34.933332,19.710305 -1.733333,-3.6 c 1.066667,0.533333 2.4,0.533333 3.466667,0 l -1.733334,3.6"
       style="fill:#000000;fill-opacity:1;fill-rule:evenodd;stroke:none;stroke-width:1.33333325" /><g
       id="g32"
       transform="matrix(1.3333333,0,0,-1.3333333,0,-0.0230283)"><path
         inkscape:connector-curvature="0"
         id="path30"
         d="m 26.2,-48.1 v -5.2"
         style="fill:none;stroke:#000000;stroke-width:0.5;stroke-linecap:round;stroke-linejoin:round;stroke-miterlimit:10;stroke-dasharray:none;stroke-opacity:1" /></g><path
       inkscape:connector-curvature="0"
       id="path34"
       d="m 34.933332,73.710303 -1.733333,-3.6 c 1.066667,0.533334 2.4,0.533334 3.466667,0 l -1.733334,3.6"
       style="fill:#000000;fill-opacity:1;fill-rule:evenodd;stroke:none;stroke-width:1.33333325" /><path
       inkscape:connector-curvature="0"
       id="path36"
       d="m 39.733332,78.643636 c 0,-2.666666 -2.133333,-4.799999 -4.8,-4.799999 -2.666666,0 -4.933333,2.266666 -4.933333,4.799999 0,2.666667 2.266667,4.933334 4.933333,4.933334 2.666667,0 4.8,-2.266667 4.8,-4.933334"
       style="fill:#ffffff;fill-opacity:1;fill-rule:evenodd;stroke:none;stroke-width:1.33333325" /><g
       id="g46"
       transform="matrix(1.3333333,0,0,-1.3333333,0,-0.0230283)"><path
         inkscape:connector-curvature="0"
         id="path38"
         d="m 29.8,-59 c 0,2 -1.6,3.6 -3.6,3.6 -2,0 -3.7,-1.7 -3.7,-3.6 0,-2 1.7,-3.7 3.7,-3.7 2,0 3.6,1.7 3.6,3.7 z"
         style="fill:none;stroke:#000000;stroke-width:0.5;stroke-linecap:round;stroke-linejoin:round;stroke-miterlimit:10;stroke-dasharray:none;stroke-opacity:1" /><path
         inkscape:connector-curvature="0"
         id="path40"
         d="m 24.3,-59 h 3.6"
         style="fill:none;stroke:#000000;stroke-width:0.5;stroke-linecap:round;stroke-linejoin:round;stroke-miterlimit:10;stroke-dasharray:none;stroke-opacity:1" /><path
         inkscape:connector-curvature="0"
         id="path42"
         d="m 26.2,-60.9 v 3.7"
         style="fill:none;stroke:#000000;stroke-width:0.5;stroke-linecap:round;stroke-linejoin:round;stroke-miterlimit:10;stroke-dasharray:none;stroke-opacity:1" /><path
         inkscape:connector-curvature="0"
         id="path44"
         d="m 26.2,-62.7 v -5.4"
         style="fill:none;stroke:#000000;stroke-width:0.5;stroke-linecap:round;stroke-linejoin:round;stroke-miterlimit:10;stroke-dasharray:none;stroke-opacity:1" /></g><path
       inkscape:connector-curvature="0"
       id="path48"
       d="m 34.933332,93.443636 -1.733333,-3.466667 c 1.066667,0.533334 2.4,0.533334 3.466667,0 l -1.733334,3.466667"
       style="fill:#000000;fill-opacity:1;fill-rule:evenodd;stroke:none;stroke-width:1.33333325" /><g
       id="g52"
       transform="matrix(1.3333333,0,0,-1.3333333,0,-0.0230283)"><path
         inkscape:connector-curvature="0"
         id="path50"
         d="m 29.8,-7.4 c 45.6,0 53,-13.5 50.3,-32.5 -1.2,-8.8 -4.6,-18.8 -48.3,-19.1"
         style="fill:none;stroke:#000000;stroke-width:0.5;stroke-linecap:round;stroke-linejoin:round;stroke-miterlimit:10;stroke-dasharray:none;stroke-opacity:1" /></g><path
       inkscape:connector-curvature="0"
       id="path54"
       d="m 39.733332,78.643636 3.6,1.866667 c -0.533333,-1.2 -0.533333,-2.4 0,-3.6 l -3.6,1.733333"
       style="fill:#000000;fill-opacity:1;fill-rule:evenodd;stroke:none;stroke-width:1.33333325" /><g
       id="g58"
       transform="matrix(1.3333333,0,0,-1.3333333,0,-0.0230283)"><path
         inkscape:connector-curvature="0"
         id="path56"
         d="m 26.2,-7.4 h 3.6"
         style="fill:none;stroke:#000000;stroke-width:0.5;stroke-linecap:round;stroke-linejoin:round;stroke-miterlimit:10;stroke-dasharray:none;stroke-opacity:1" /></g><text
       y="34.937199"
       x="39.056438"
       id="text62"
       transform="scale(0.99976665,1.0002334)"
       style="font-variant:normal;font-weight:normal;font-size:7.33162212px;font-family:'DejaVu Sans';-inkscape-font-specification:DejaVuSans;writing-mode:lr-tb;fill:#000000;fill-opacity:1;fill-rule:nonzero;stroke:none;stroke-width:1.33302212"><tspan
         style="stroke-width:1.33302212"
         id="tspan60"
         x="39.056438 41.58918 45.188339 46.921268"
         y="34.937199">relu</tspan></text>
<path
       inkscape:connector-curvature="0"
       id="path64"
       d="M 2.9333333,57.97697 H 66.799998 v 9.333333 H 2.9333333 Z"
       style="fill:#ffffff;fill-opacity:1;fill-rule:nonzero;stroke:#000000;stroke-width:0.66666663;stroke-linecap:round;stroke-linejoin:round;stroke-miterlimit:10;stroke-dasharray:none;stroke-opacity:1" /><text
       y="65.021858"
       x="20.900076"
       id="text68"
       transform="scale(0.99976406,1.000236)"
       style="font-variant:normal;font-weight:normal;font-size:7.9981122px;font-family:'DejaVu Sans';-inkscape-font-specification:DejaVuSans;writing-mode:lr-tb;fill:#000000;fill-opacity:1;fill-rule:nonzero;stroke:none;stroke-width:1.33301866"><tspan
         style="stroke-width:1.33301866"
         id="tspan66"
         x="20.900076 25.032434 28.498283 32.497337 34.630169 36.363094 40.495453 44.627808"
         y="65.021858">1x1, 256</tspan></text>
<g
       id="g72"
       transform="matrix(1.3333333,0,0,-1.3333333,0,-0.0230283)"><path
         inkscape:connector-curvature="0"
         id="path70"
         d="m 26.2,-36.3 v -5.2"
         style="fill:none;stroke:#000000;stroke-width:0.5;stroke-linecap:round;stroke-linejoin:round;stroke-miterlimit:10;stroke-dasharray:none;stroke-opacity:1" /></g><path
       inkscape:connector-curvature="0"
       id="path74"
       d="m 34.933332,57.97697 -1.733333,-3.6 c 1.066667,0.533334 2.4,0.533334 3.466667,0 l -1.733334,3.6"
       style="fill:#000000;fill-opacity:1;fill-rule:evenodd;stroke:none;stroke-width:1.33333325" /><text
       y="54.152611"
       x="39.056438"
       id="text82"
       transform="scale(0.99976665,1.0002334)"
       style="font-variant:normal;font-weight:normal;font-size:7.33162212px;font-family:'DejaVu Sans';-inkscape-font-specification:DejaVuSans;writing-mode:lr-tb;fill:#000000;fill-opacity:1;fill-rule:nonzero;stroke:none;stroke-width:1.33302212"><tspan
         style="stroke-width:1.33302212"
         id="tspan76"
         x="39.056438 41.58918 45.188339 46.921268"
         y="54.152611">relu</tspan><tspan
         style="stroke-width:1.33302212"
         id="tspan78"
         x="39.056438 41.58918 45.188339 46.921268"
         y="89.611">relu</tspan><tspan
         style="stroke-width:1.33302212"
         id="tspan80"
         x="41.055973 44.655132 48.387592 52.120056 54.252892"
         y="5.763907">256-d</tspan></text>
</g></svg>